# xmcd
#
# Track frame offsets: 
#        150
#        26530
#        47993
#        74479
#        102960
#        128335
#        153142
#        171719
#        187243
#        208420
#        233021
#
# Disc length: 3384 seconds
#
# Revision: 0
# Processed by: cddbd v1.5.2PL0 Copyright (c) Steve Scherf et al.
# Submitted via: ExactAudioCopy v1.3
#
DISCID=9e0d360b
DTITLE=Mark Ford and The Blue Line - Mark Ford and The Blue Line
DYEAR=1998
DGENRE=Modern Electric Blues, Harmonica Blues
TTITLE0=Gimme Some
TTITLE1=Try'n To Get Away
TTITLE2=Get A Woman That Loves Me
TTITLE3=Illusory World
TTITLE4=Heart Of Stone
TTITLE5=Words Of The Preacher
TTITLE6=Breakin' In The Fast Lane
TTITLE7=Don't You Love Me
TTITLE8=Feelin' Disconnected
TTITLE9=Projecting My Love
TTITLE10=Wanna Be The Man
EXTD=
EXTT0=
EXTT1=
EXTT2=
EXTT3=
EXTT4=
EXTT5=
EXTT6=
EXTT7=
EXTT8=
EXTT9=
EXTT10=
PLAYORDER=
